<mxfile host="app.diagrams.net" modified="2024-01-31T09:50:32.385Z" agent="Mozilla/5.0 (X11; Linux x86_64) AppleWebKit/537.36 (KHTML, like Gecko) Chrome/121.0.0.0 Safari/537.36" version="23.0.2" etag="7PGhiVjQcse122MgmiHN" type="github">
  <diagram name="Page-1" id="Mnk-jpi9ywoGEMoWKH_Y">
    <mxGraphModel>
      <root>
        <mxCell id="0" />
        <mxCell id="1" parent="0" />
      </root>
    </mxGraphModel>
  </diagram>
</mxfile>
